<?xml version="1.0" standalone="no"?>
<!DOCTYPE svg PUBLIC "-//W3C//DTD SVG 20010904//EN"
 "http://www.w3.org/TR/2001/REC-SVG-20010904/DTD/svg10.dtd">
<svg version="1.0" xmlns="http://www.w3.org/2000/svg"
 width="1040.000000pt" height="1040.000000pt" viewBox="0 0 1040.000000 1040.000000"
 preserveAspectRatio="xMidYMid meet">
<metadata>
Created by potrace 1.11, written by Peter Selinger 2001-2013
</metadata>
<g transform="translate(0.000000,1040.000000) scale(0.100000,-0.100000)"
fill="#000000" stroke="none">
<path d="M5007 9564 c-2 -2 -23 -5 -48 -8 -24 -2 -44 -5 -44 -6 0 -1 -13 -3
-30 -5 -130 -13 -365 -80 -505 -143 -30 -14 -57 -26 -60 -27 -13 -4 -146 -71
-150 -76 -3 -3 -31 -20 -63 -38 -31 -18 -63 -38 -70 -44 -7 -7 -35 -27 -62
-46 -175 -121 -399 -356 -516 -541 -20 -30 -47 -73 -61 -95 -28 -45 -78 -140
-79 -152 -1 -5 -6 -17 -12 -28 -6 -11 -12 -22 -13 -25 -1 -6 -32 -78 -44 -105
-10 -22 -39 -107 -45 -134 -2 -9 -11 -41 -20 -71 -9 -30 -18 -66 -20 -80 -2
-14 -6 -37 -9 -52 -20 -99 -23 -118 -32 -216 -14 -151 -6 -407 16 -507 5 -22
11 -58 15 -80 3 -22 13 -67 21 -100 9 -33 17 -67 19 -75 3 -16 33 -106 42
-130 4 -8 7 -17 8 -20 1 -3 7 -18 13 -33 7 -16 12 -31 12 -33 0 -9 110 -228
130 -259 11 -16 23 -37 27 -45 10 -21 67 -102 136 -194 61 -80 218 -243 292
-303 49 -40 146 -114 171 -131 76 -50 140 -88 239 -141 71 -37 98 -77 91 -133
-6 -46 -20 -69 -61 -97 -40 -27 -101 -33 -135 -12 -14 9 -70 61 -126 116 -117
116 -167 161 -218 195 -20 14 -36 28 -36 33 0 4 -6 7 -14 7 -8 0 -16 3 -18 8
-3 8 -85 65 -108 75 -8 4 -31 17 -50 28 -86 53 -161 88 -335 159 -23 10 -125
43 -140 46 -5 1 -28 6 -50 12 -22 6 -51 13 -65 16 -14 3 -50 10 -80 16 -69 14
-118 20 -196 24 -34 2 -66 5 -70 8 -18 9 -319 -4 -389 -17 -16 -3 -43 -8 -60
-10 -65 -9 -121 -21 -195 -40 -57 -15 -252 -81 -279 -95 -9 -4 -63 -31 -121
-60 -58 -29 -124 -65 -148 -81 -24 -16 -46 -29 -49 -29 -4 0 -57 -38 -117 -84
-122 -93 -252 -215 -337 -316 -30 -36 -57 -67 -60 -70 -14 -11 -139 -200 -139
-210 0 -5 -3 -10 -7 -10 -5 0 -17 -19 -28 -43 -10 -23 -26 -53 -35 -67 -23
-35 -94 -203 -123 -290 -37 -110 -48 -153 -43 -166 3 -7 1 -14 -4 -16 -4 -2
-11 -19 -14 -38 -3 -19 -8 -46 -11 -60 -3 -14 -7 -43 -10 -65 -3 -22 -8 -56
-11 -75 -3 -19 -7 -85 -9 -147 -1 -61 -6 -116 -10 -122 -3 -6 -3 -16 1 -22 4
-6 8 -44 10 -83 2 -39 6 -91 9 -116 4 -25 8 -58 10 -75 2 -16 6 -41 9 -55 3
-14 8 -36 11 -50 11 -52 15 -67 30 -125 42 -153 109 -315 190 -460 48 -85 104
-174 115 -185 3 -3 25 -32 50 -65 73 -99 185 -217 305 -323 119 -105 352 -249
525 -325 72 -32 160 -65 160 -61 0 3 9 0 21 -6 11 -6 28 -13 37 -15 9 -3 37
-9 62 -16 25 -6 53 -12 63 -14 10 -2 28 -7 40 -11 12 -4 31 -8 42 -10 42 -5
101 -15 120 -19 104 -22 478 -22 555 -1 8 3 38 7 65 11 42 5 81 13 150 29 83
20 188 53 265 83 90 35 303 141 312 156 4 7 8 9 8 5 0 -7 168 104 206 137 6 6
31 26 55 45 61 49 228 216 269 270 19 25 39 50 45 56 15 17 42 53 85 119 22
33 43 65 47 71 20 27 103 189 138 269 9 22 23 53 30 70 8 16 11 33 9 37 -3 4
0 8 5 8 6 0 10 3 10 7 -1 5 0 10 1 13 2 5 5 19 14 55 2 11 11 40 20 65 8 25
17 59 20 75 2 17 5 30 6 30 2 0 4 9 5 20 2 11 6 34 9 50 16 81 26 159 31 255
10 165 16 189 59 220 57 41 106 45 170 15 30 -14 44 -30 62 -69 24 -56 37
-136 21 -136 -5 0 -5 -5 2 -13 6 -8 9 -16 6 -19 -3 -3 -8 -36 -10 -74 -6 -73
-9 -101 -25 -229 -16 -120 -20 -148 -25 -175 -3 -14 -7 -42 -10 -62 -11 -85
-16 -117 -30 -203 -14 -87 -18 -110 -31 -185 -3 -19 -8 -46 -10 -60 -2 -14 -6
-36 -9 -50 -3 -14 -8 -45 -11 -70 -3 -25 -8 -48 -10 -51 -2 -3 -5 -19 -8 -35
-6 -36 -19 -117 -21 -124 -1 -3 -5 -25 -9 -50 -5 -25 -10 -54 -13 -65 -20 -97
-54 -276 -58 -300 -5 -36 -12 -71 -19 -93 -3 -9 -8 -30 -11 -47 -6 -34 -3 -20
-50 -235 -38 -169 -41 -186 -50 -220 -10 -41 -16 -66 -20 -85 -17 -74 -23
-100 -25 -100 -1 0 -3 -7 -5 -15 -1 -8 -10 -44 -20 -80 -9 -36 -18 -72 -20
-80 -4 -20 -34 -118 -46 -150 -5 -14 -11 -34 -13 -45 -3 -11 -12 -37 -20 -58
-9 -20 -14 -37 -12 -37 2 0 -6 -21 -19 -47 -13 -27 -22 -49 -20 -51 2 -2 28 3
58 11 31 8 58 12 61 9 3 -3 6 -1 6 4 0 5 10 9 23 10 12 0 38 3 57 7 55 11 328
47 410 55 155 14 497 8 660 -13 91 -12 262 -36 283 -41 12 -3 38 -6 57 -9 19
-2 35 -4 35 -5 0 -1 7 -3 15 -5 54 -12 67 -15 88 -21 24 -7 24 -6 9 22 -8 16
-27 65 -42 109 -14 44 -29 87 -32 95 -3 8 -7 20 -8 25 -2 6 -15 51 -29 101
-15 50 -29 100 -31 110 -2 10 -13 55 -25 98 -11 44 -22 89 -25 100 -2 12 -11
48 -19 82 -8 34 -17 72 -20 85 -3 13 -13 56 -22 94 -9 39 -17 79 -19 90 -1 11
-3 20 -4 20 -3 0 -7 16 -16 65 -3 19 -11 55 -16 80 -6 25 -13 54 -15 65 -3 11
-6 34 -8 50 -2 17 -6 37 -9 45 -3 8 -8 29 -11 45 -3 17 -7 41 -10 55 -8 41
-16 83 -22 120 -3 19 -9 49 -14 65 -5 17 -13 59 -19 95 -6 36 -13 74 -15 85
-2 11 -7 40 -11 65 -4 25 -10 54 -12 65 -3 11 -6 32 -7 48 0 15 -3 27 -6 27
-3 0 -6 8 -6 18 -1 9 -4 36 -8 59 -4 23 -9 55 -11 70 -4 27 -8 48 -21 123 -8
43 -13 76 -18 115 -2 17 -6 44 -10 60 -4 17 -9 46 -11 65 -4 32 -8 60 -19 145
-3 17 -8 53 -11 80 -4 28 -9 61 -11 75 -25 165 -31 333 -14 396 12 44 66 105
97 111 45 9 93 9 93 1 0 -5 4 -7 9 -4 13 8 69 -40 85 -73 7 -14 14 -59 15 -99
1 -40 4 -88 6 -105 10 -95 17 -154 21 -172 2 -11 11 -56 20 -100 9 -44 17 -84
18 -90 1 -5 5 -16 9 -22 5 -7 6 -13 2 -13 -3 0 -1 -9 5 -21 7 -11 14 -31 16
-45 2 -13 9 -36 16 -51 6 -16 12 -30 13 -33 6 -23 21 -63 41 -105 12 -27 22
-52 21 -55 -1 -6 34 -70 50 -90 6 -8 12 -18 12 -23 1 -19 131 -231 152 -247 3
-3 19 -23 35 -45 84 -115 224 -253 407 -401 9 -8 21 -14 26 -14 5 0 11 -4 13
-8 3 -9 80 -59 163 -108 106 -63 290 -144 390 -174 22 -6 47 -14 55 -18 8 -3
22 -7 30 -8 24 -5 55 -12 55 -14 0 -2 9 -4 110 -24 142 -28 265 -39 410 -39
85 0 240 11 265 18 8 2 35 6 60 9 59 7 96 14 145 28 22 6 47 13 56 14 32 7
235 75 269 91 19 9 42 18 50 19 8 2 16 8 18 13 2 6 9 11 15 11 30 0 311 163
300 174 -3 3 0 6 8 6 8 0 26 10 41 23 14 12 36 29 48 37 74 50 284 259 352
349 58 78 150 215 176 263 15 27 39 73 55 101 34 64 103 240 129 327 24 85 43
165 54 229 3 18 7 43 10 55 7 37 15 112 19 193 2 43 5 80 6 83 1 3 1 9 0 14
-1 5 -4 57 -6 115 -5 116 -11 182 -19 221 -2 14 -7 43 -11 65 -3 22 -7 47 -10
55 -2 8 -6 26 -9 40 -19 95 -78 269 -124 370 -14 30 -25 58 -24 62 1 3 -5 12
-13 18 -8 7 -15 21 -15 31 0 10 -4 20 -9 24 -6 3 -16 18 -24 33 -28 54 -59
107 -73 123 -8 8 -14 19 -14 22 0 4 -33 51 -74 104 -94 124 -248 282 -361 371
-63 49 -138 103 -170 122 -22 13 -42 26 -45 30 -11 12 -173 96 -260 134 -58
25 -194 75 -220 81 -8 2 -27 8 -42 14 -16 6 -28 9 -28 7 0 -2 -21 2 -46 10
-26 7 -50 11 -54 9 -5 -3 -11 -2 -14 3 -2 4 -17 9 -33 10 -30 3 -68 9 -68 12
0 1 -20 4 -45 6 -25 2 -65 6 -90 9 -75 9 -105 9 -118 1 -7 -4 -12 -3 -12 1 0
10 -104 9 -235 -2 -49 -4 -100 -8 -112 -9 -13 0 -23 -3 -23 -6 0 -3 -19 -6
-41 -7 -23 -2 -47 -7 -54 -13 -6 -5 -14 -7 -17 -4 -11 11 -303 -74 -334 -97
-6 -5 -19 -10 -30 -12 -25 -5 -77 -29 -85 -40 -3 -5 -10 -9 -15 -9 -33 0 -309
-162 -354 -208 -3 -3 -23 -18 -45 -34 -52 -38 -67 -52 -208 -190 -65 -64 -122
-114 -127 -111 -5 3 -11 1 -14 -4 -8 -12 -62 -6 -95 10 -101 52 -105 186 -6
230 11 5 27 13 35 18 8 6 64 38 123 73 59 34 117 70 127 80 11 10 24 18 29 18
6 0 14 6 18 13 4 8 15 18 24 23 50 27 249 216 319 302 19 24 43 53 53 65 10
12 26 34 35 50 9 15 20 27 24 27 4 0 8 7 8 15 0 8 5 15 10 15 6 0 15 10 20 23
6 12 24 45 42 72 49 79 109 195 101 195 -5 0 -3 4 3 8 18 11 116 269 129 340
2 9 4 17 5 17 1 0 3 7 5 15 22 111 35 180 39 205 18 110 25 382 12 485 -4 30
-9 75 -11 100 -2 25 -6 52 -9 60 -3 8 -7 34 -10 57 -2 23 -7 47 -11 53 -4 6
-8 21 -10 33 -3 26 -21 94 -42 157 -48 146 -180 427 -205 438 -5 2 -8 8 -8 12
0 12 -62 104 -72 108 -4 2 -8 10 -8 18 0 8 -7 17 -15 20 -8 4 -15 12 -15 20 0
7 -6 17 -13 21 -6 4 -25 26 -42 48 -48 65 -233 245 -325 315 -25 19 -46 38
-48 42 -2 5 -9 8 -17 8 -7 0 -18 7 -25 15 -28 34 -359 215 -393 215 -7 0 -17
4 -22 8 -12 11 -106 44 -200 71 -62 18 -84 23 -145 38 -8 2 -28 5 -45 7 -16 2
-37 6 -45 9 -8 3 -22 6 -30 6 -42 1 -88 9 -100 16 -9 6 -11 4 -5 -6 7 -11 6
-12 -6 -3 -13 10 -382 18 -392 8z"/>
</g>
</svg>
